<svg id="logo" xmlns="http://www.w3.org/2000/svg" viewBox="0 0 1076.13 199.27">
  <title>verum-logo-trace</title>
  <path d="M350.41,41.87C338,28.21,314.7,19.29,297.89,21.08c3.45,4.57,7.22,9,10.34,13.83s5.65,10.15,8.44,15.25a109.19,109.19,0,0,1,5.65,61.9h56c-.15-12.15-1-23.61-5.83-34.42C368.13,63.87,361.35,51.59,350.41,41.87ZM460,41.15V24.79l-12.23,5.06h0c-12.67,4.45-25.36,8.81-37.94,13.47-1.12.41-2.11,2.76-2.15,4.24-.2,8.64-.13,17.28-.09,25.92.08,15.28.22,30.56.33,45.83h0q0,15.41,0,30.8v48.63h52V151.11c.09-14.33.26-28.65.25-43C460.19,85.8,460.06,63.48,460,41.15ZM178.83,14.53c-4.64-11-20.25-17.15-30.53-13.46L140,4.1C129.74,9.84,125.39,19,126.47,30.24c1.12,11.73,8.15,19.42,19.13,23.87,5.12,2.08,9.78,5.31,14.65,8q2.28,3.3,4.59,6.6c.61,2.53,1.23,5.07,2.08,8.52,11-12.77,16.88-26.71,16.3-43.17C181.83,27.53,181.38,20.58,178.83,14.53Zm166.69,159c-19.53,2.26-37.69-1.82-54.63-11.69a33.73,33.73,0,0,0-4.53-1.82l-9.55-8.1q-2.37-2.5-4.72-5c-14.93-16-23.71-34.9-23.72-56.87,0-11,2.54-21.92,3.93-32.88h0q1.66-4.43,3.32-8.85l7-13.08,11.29-14.45C257,23.23,243.1,29.48,231.09,40L217.31,54.21,205.46,73.1c-1.22,3.27-2.63,6.49-3.62,9.83-3.51,11.84-5.73,23.86-3.93,36.29h0c1.41,13.75,5.29,26.64,13.28,38.09.64,1.16,1.2,2.37,1.93,3.47,25.13,37.51,78.88,49.43,117.51,25.92,5.85-3.56,11.22-7.92,17.78-12.6A17.63,17.63,0,0,0,345.52,173.49ZM536.71,19.88c-15.41-.83-26.82,7-36.59,17.87a61.55,61.55,0,0,0-15.07,25.41c17-3.65,19.22-3.1,33.49,6.71,4.69,3.23,9.79,5.71,15.82,4.79,4.45-1.07,9.27-1.38,13.25-3.37,10.73-5.33,16.12-18,13.52-30C558.88,30.86,547.3,20.46,536.71,19.88ZM97.79,93h0L88.46,76h0c-8.68-16.21-17.3-32.45-26.2-48.54-.75-1.35-3.43-2.28-5.23-2.31-14.65-.18-29.29-.1-43.94-.1H0C8.53,40.65,16.57,55.35,24.61,70l7.77,14.11c2.67,5.12,5.25,10.29,8,15.35q14.35,26.34,28.83,52.61L94,198.87c1.43-2,2.34-3.11,3.09-4.33,6.42-10.51,12.86-21,19.18-31.58,2.29-3.82,4.27-7.82,6.39-11.74,3.14-2.78,4-5.53,1.68-9.69C115.29,125.48,106.61,109.22,97.79,93ZM649.7,181.79c-6.12-7.88-8-17.29-9.61-26.78-.28-7.92-.71-15.83-.81-23.76-.17-14.38-.15-28.78-.21-43.17h0V25.4H586.86V60q0,27.5,0,55l.42,35.22c1.77,16.13,9.34,28.45,23.83,36.22a77.57,77.57,0,0,0,35.24,10.7l10.91,1.1,16.94,1.05.05-.94-16.67-9.5ZM1075.33,71c-.16-16-7.62-27.67-21-35.9-11.72-8.32-42.49-13.9-52.58-9.43,1.95,1.07,3.8,2.14,5.69,3.13,10.63,5.61,16.18,14.32,16.31,26.42,0,3.63.31,7.26.48,10.88-.12,11.83-.33,23.65-.32,35.48,0,23.49.19,47,.3,70.48h0V198.7h51.94V149h0Q1075.72,110,1075.33,71Zm-106.2-.32a42,42,0,0,0-14.3-30.38c-10.81-9.82-24.1-13.91-38.29-15.11-7.13-.6-14.36-.1-21.55-.1a6.55,6.55,0,0,0,2.85,2.16c11.83,5.58,18.82,14.49,19.23,27.93.09,3.16.18,6.32.18,9.48q0,64.44-.07,128.89v5.23h52.06c.11-1.28.24-2.09.24-2.9q-.09-34.4-.2-68.8C969.28,108.31,969.7,89.49,969.13,70.71Zm-107-4.63V24.85L834.33,35.31c-6.72,2.36-13.37,5-20.19,7-3.6,1.07-4.44,2.9-4.43,6.41q.13,72.71,0,145.4c0,1.47.15,2.93.25,4.59h52.31V193q0-34.74,0-69.46Q862.29,94.8,862.16,66.08ZM753.34,94.31c0-5.09.34-10.19.53-15.28V25.4H701.39V94.07l0,38v66.76h26.94l.45.15.45-.14h24.63V163.07l0-40.06C753.67,113.44,753.39,103.88,753.34,94.31Z" transform="translate(0 0)" style="fill: #00fe9f"/>
</svg>
